<svg xmlns="http://www.w3.org/2000/svg" fill="none" viewBox="0 0 159 40" height="40" width="159">
<g id="Group 32">
<path fill="#ABABAB" d="M47.9303 16.2279V23.8281H49.8253C50.3089 23.8209 50.7861 23.7168 51.2288 23.5219C51.6715 23.3271 52.0706 23.0454 52.4025 22.6936C53.0837 21.9724 53.4564 21.0137 53.4413 20.0217C53.4557 19.529 53.3727 19.0383 53.1969 18.5778C53.0211 18.1172 52.7561 17.696 52.417 17.3382C52.0837 16.9859 51.6818 16.7056 51.2361 16.5145C50.7904 16.3234 50.3102 16.2255 49.8253 16.227H47.9313L47.9303 16.2279ZM49.8253 13.845C53.3572 13.845 56.0291 16.5816 56.0291 20.0217C56.0291 23.4618 53.3572 26.2139 49.8253 26.2139H45.6459C45.6061 26.2134 45.5667 26.2051 45.5301 26.1893C45.4935 26.1736 45.4603 26.1508 45.4325 26.1223C45.4047 26.0938 45.3828 26.06 45.368 26.023C45.3532 25.986 45.3459 25.9465 45.3464 25.9066V14.1648C45.3464 13.9947 45.4807 13.8566 45.6459 13.8566L49.8253 13.845ZM65.1328 24.0928C66.7369 24.0977 68.1854 23.111 68.8029 21.5929C69.1054 20.8512 69.1862 20.0377 69.0356 19.2509C68.8851 18.4642 68.5095 17.738 67.9545 17.1604C67.4092 16.5923 66.7044 16.203 65.9332 16.0439C65.1619 15.8849 64.3606 15.9635 63.635 16.2695C62.1527 16.8956 61.1844 18.377 61.1815 20.0217C61.1815 22.2636 62.947 24.0822 65.1328 24.0928ZM65.1338 13.5647C68.8512 13.5647 71.6932 16.4946 71.6932 20.0217C71.6932 23.5488 68.8512 26.4787 65.1328 26.4787C61.4154 26.4787 58.5976 23.5633 58.5976 20.0217C58.5976 16.4801 61.4405 13.5647 65.1338 13.5647ZM80.7235 24.0928C82.9103 24.087 84.6796 22.2665 84.6777 20.0246C84.6748 17.7808 82.9016 15.9641 80.7158 15.9631C78.528 15.9631 76.7538 17.7789 76.7509 20.0217C76.7509 21.1021 77.1693 22.138 77.9144 22.9013C78.2791 23.2776 78.7154 23.5768 79.1978 23.7815C79.6801 23.9861 80.1995 24.092 80.7235 24.0928ZM80.7225 13.5647C84.4284 13.5647 87.2703 16.4801 87.2703 20.0217C87.2703 23.5633 84.4168 26.4787 80.7225 26.4787C77.0292 26.4787 74.1631 23.5633 74.1631 20.0217C74.1631 16.4801 77.0051 13.5647 80.7225 13.5647ZM95.9382 16.2279H93.2664V19.4989H95.9382C96.1494 19.5083 96.3601 19.4743 96.5576 19.399C96.755 19.3237 96.935 19.2087 97.0862 19.0612C97.3955 18.7616 97.5713 18.3461 97.5752 17.9093C97.583 17.6877 97.5459 17.4669 97.4662 17.2599C97.3865 17.053 97.2658 16.8644 97.1114 16.7053C96.9598 16.5487 96.7771 16.4256 96.575 16.3439C96.373 16.2622 96.1561 16.2237 95.9382 16.2308V16.2279ZM90.6814 14.1648C90.6814 13.9947 90.8167 13.8566 90.982 13.8566H96.0127C98.4111 13.8566 100.147 15.6588 100.147 17.9219C100.165 19.4525 99.3291 20.8585 97.9946 21.5437L100.315 25.7501C100.347 25.7984 100.365 25.8547 100.367 25.9127C100.369 25.9707 100.355 26.0281 100.326 26.0786C100.298 26.1283 100.257 26.1689 100.206 26.1957C100.156 26.2224 100.099 26.2341 100.042 26.2294H98.0062C97.9497 26.2302 97.8942 26.215 97.8459 26.1856C97.7977 26.1562 97.7588 26.1137 97.7337 26.0632L95.4976 21.9002H93.2567V25.897C93.2573 25.9369 93.2501 25.9765 93.2354 26.0137C93.2206 26.0508 93.1987 26.0846 93.1709 26.1133C93.1431 26.1419 93.1099 26.1648 93.0732 26.1805C93.0365 26.1963 92.9971 26.2047 92.9571 26.2052H90.9955C90.9556 26.2047 90.9161 26.1963 90.8794 26.1805C90.8428 26.1648 90.8096 26.1419 90.7817 26.1133C90.7539 26.0846 90.732 26.0508 90.7173 26.0137C90.7026 25.9765 90.6953 25.9369 90.6959 25.897L90.6824 14.1658L90.6814 14.1648ZM106.884 16.2859V23.887H108.778C109.261 23.8804 109.739 23.777 110.181 23.5828C110.624 23.3886 111.024 23.1076 111.356 22.7564C112.037 22.036 112.411 21.078 112.397 20.0864C112.412 19.5931 112.33 19.1016 112.155 18.6402C111.979 18.1789 111.714 17.7567 111.375 17.3981C111.041 17.0453 110.639 16.7646 110.192 16.5734C109.746 16.3823 109.265 16.2848 108.779 16.2869L106.884 16.2859ZM108.778 13.9C112.31 13.9 114.982 16.6396 114.982 20.0864C114.982 23.5333 112.31 26.2729 108.778 26.2729H104.611C104.571 26.2723 104.532 26.264 104.495 26.2482C104.458 26.2324 104.425 26.2096 104.397 26.1809C104.369 26.1523 104.347 26.1184 104.333 26.0813C104.318 26.0442 104.311 26.0045 104.311 25.9646V14.2238C104.311 14.0527 104.446 13.9145 104.611 13.9145L108.778 13.9ZM122.863 16.9227L121.397 20.9871H124.326L122.863 16.9227ZM120.537 23.284L119.577 25.9897C119.558 26.0534 119.518 26.1088 119.464 26.1473C119.41 26.1858 119.344 26.2052 119.278 26.2023H117.196C117.143 26.2072 117.09 26.1978 117.042 26.1751C116.994 26.1523 116.953 26.117 116.923 26.0728C116.893 26.0282 116.874 25.9764 116.87 25.9226C116.865 25.8688 116.874 25.8147 116.897 25.7655L121.394 14.0353C121.415 13.9735 121.456 13.9202 121.51 13.8835C121.564 13.8469 121.628 13.8289 121.694 13.8324H124.023C124.088 13.8287 124.153 13.8466 124.207 13.8832C124.261 13.9199 124.302 13.9733 124.323 14.0353L128.82 25.7655C128.843 25.8148 128.852 25.8689 128.847 25.9227C128.842 25.9766 128.824 26.0283 128.793 26.0728C128.763 26.1168 128.722 26.1519 128.674 26.1745C128.626 26.1971 128.573 26.2064 128.52 26.2013H126.439C126.373 26.2042 126.307 26.1848 126.253 26.1464C126.199 26.1079 126.159 26.0524 126.14 25.9888L125.18 23.283H120.537V23.284ZM131.233 17.1865C131.233 15.2442 132.87 13.5647 135.455 13.5647C136.847 13.5336 138.195 14.0544 139.204 15.0132C139.235 15.0423 139.26 15.0774 139.276 15.1163C139.293 15.1551 139.302 15.197 139.302 15.2394C139.302 15.2817 139.293 15.3236 139.276 15.3625C139.26 15.4014 139.235 15.4364 139.204 15.4655L138.052 16.6396C138.024 16.6681 137.991 16.6908 137.954 16.7063C137.918 16.7218 137.879 16.7297 137.839 16.7297C137.799 16.7297 137.76 16.7218 137.724 16.7063C137.687 16.6908 137.654 16.6681 137.626 16.6396C137.083 16.1306 136.37 15.8423 135.626 15.8308C134.592 15.8308 133.828 16.4463 133.828 17.1566C133.828 19.4525 139.938 18.1277 139.938 22.5457C139.935 24.7847 138.285 26.4787 135.369 26.4787C134.559 26.487 133.756 26.3323 133.007 26.0239C132.258 25.7154 131.579 25.2595 131.01 24.6832C130.979 24.6542 130.955 24.6191 130.938 24.5802C130.921 24.5414 130.913 24.4995 130.913 24.4571C130.913 24.4148 130.921 24.3729 130.938 24.334C130.955 24.2951 130.979 24.2601 131.01 24.231L132.125 23.0869C132.153 23.057 132.187 23.0331 132.224 23.0168C132.261 23.0005 132.302 22.9921 132.343 22.9921C132.383 22.9921 132.424 23.0005 132.461 23.0168C132.499 23.0331 132.532 23.057 132.56 23.0869C133.262 23.7826 134.207 24.1777 135.195 24.1885C136.487 24.1885 137.338 23.4811 137.338 22.595C137.338 20.2981 131.231 21.6239 131.231 17.2049M151.018 14.1494V18.7916H145.846V14.1494C145.846 14.1095 145.839 14.07 145.824 14.0329C145.81 13.9959 145.788 13.9622 145.76 13.9337C145.732 13.9051 145.699 13.8824 145.662 13.8666C145.626 13.8509 145.586 13.8426 145.546 13.8421H143.585C143.545 13.8426 143.506 13.8509 143.469 13.8666C143.432 13.8824 143.399 13.9051 143.371 13.9337C143.344 13.9622 143.322 13.9959 143.307 14.0329C143.292 14.07 143.285 14.1095 143.285 14.1494V25.8776C143.285 26.0477 143.42 26.1859 143.585 26.1859H145.546C145.711 26.1859 145.846 26.0477 145.846 25.8776V21.162H151.014V25.8776C151.014 26.0477 151.149 26.1859 151.313 26.1859H153.275C153.44 26.1859 153.575 26.0477 153.575 25.8776V14.1494C153.575 14.1095 153.568 14.07 153.553 14.0329C153.538 13.9959 153.516 13.9622 153.488 13.9337C153.461 13.9051 153.427 13.8824 153.391 13.8666C153.354 13.8509 153.315 13.8426 153.275 13.8421H151.313C151.234 13.8441 151.158 13.8775 151.102 13.935C151.047 13.9925 151.017 14.0695 151.018 14.1494ZM34.3351 15.4075C32.9745 12.8854 30.3123 11.3151 27.4172 11.3248H5.51259C5.36466 11.3254 5.22018 11.3695 5.09715 11.4516C4.97412 11.5338 4.87798 11.6503 4.8207 11.7867C4.76427 11.9222 4.74957 12.0715 4.77849 12.2154C4.80741 12.3593 4.87864 12.4913 4.98305 12.5945L9.75475 17.3295C10.1761 17.7489 10.7501 17.9837 11.3473 17.9837H26.7891C27.8897 17.9721 28.7894 18.8438 28.801 19.9289C28.8126 21.0141 27.9303 21.9031 26.8297 21.9138H16.1837C16.0357 21.9138 15.8909 21.9575 15.7675 22.0393C15.6441 22.1211 15.5476 22.2374 15.4899 22.3737C15.4329 22.5094 15.4178 22.659 15.4466 22.8033C15.4753 22.9476 15.5466 23.0801 15.6513 23.1835L20.4259 27.9224C20.8498 28.3415 21.4222 28.5763 22.0184 28.5756H26.8336C33.0982 28.5756 37.8351 21.9659 34.3351 15.4046" id="Vector"></path>
</g>
</svg>
