<svg xmlns="http://www.w3.org/2000/svg" fill="none" viewBox="0 0 150 45" height="45" width="150">
<g clip-path="url(#clip0_991_3034)">
<path fill="#ABABAB" d="M26.0377 9.84656V19.8407H16.8561V9.84656H12.5V33.7039H16.8573V24.0341H26.0366V33.7039H30.395V9.84656H26.0377ZM44.342 25.9928C44.342 26.949 43.9621 27.8661 43.2859 28.5423C42.6098 29.2185 41.6927 29.5983 40.7364 29.5983C39.7802 29.5983 38.8631 29.2185 38.1869 28.5423C37.5108 27.8661 37.1309 26.949 37.1309 25.9928V15.7734H32.9976V25.9928C32.9976 28.0432 33.8122 30.0097 35.262 31.4595C36.7119 32.9094 38.6783 33.7239 40.7288 33.7239C42.7792 33.7239 44.7456 32.9094 46.1955 31.4595C47.6454 30.0097 48.4599 28.0432 48.4599 25.9928V15.7734H44.342V25.9928ZM74.9682 16.8265C74.9682 14.731 76.3538 14.0671 77.8715 14.0671C79.0955 14.0671 80.7111 14.9987 81.7689 16.1284L84.4752 12.9374C83.1238 11.1095 80.3832 9.84656 78.1391 9.84656C73.6545 9.84656 70.4116 12.4727 70.4116 16.8265C70.4116 24.9043 80.2842 22.3407 80.2842 26.8619C80.2842 28.2558 78.9304 29.4869 77.3809 29.4869C74.9363 29.4869 74.1439 28.2923 73.0212 27.0282L70.0165 30.152C71.9387 32.5105 74.309 33.7086 77.1474 33.7086C81.408 33.7086 84.8349 31.0506 84.8349 26.8949C84.8349 17.9279 74.9611 20.7145 74.9611 16.8265M136.046 29.8925C133.604 29.8925 132.909 28.8359 132.909 27.218V20.0541H136.706V16.4244H132.909V11.6355L128.718 13.5164V28.1083C128.718 31.8407 131.294 33.7216 134.824 33.7216C135.379 33.731 135.933 33.6862 136.478 33.5895L137.5 29.8253C137.039 29.8572 136.509 29.889 136.046 29.889M60.0755 15.8925C58.0283 15.8925 56.5991 16.4869 55.217 17.8418V9.98925H51.0778V24.5447C51.0778 29.9928 55.0165 33.7263 59.4434 33.7263C64.3538 33.7263 68.6733 29.9267 68.6733 24.8112C68.6733 19.7593 64.6981 15.8961 60.0755 15.8961M60.0495 29.56C59.4326 29.56 58.8218 29.4385 58.2519 29.2024C57.6819 28.9663 57.1641 28.6203 56.7279 28.1841C56.2917 27.7479 55.9457 27.2301 55.7096 26.6601C55.4735 26.0902 55.352 25.4794 55.352 24.8625C55.352 24.2456 55.4735 23.6347 55.7096 23.0648C55.9457 22.4949 56.2917 21.977 56.7279 21.5408C57.1641 21.1046 57.6819 20.7586 58.2519 20.5225C58.8218 20.2865 59.4326 20.165 60.0495 20.165C61.2954 20.165 62.4902 20.6599 63.3712 21.5408C64.2521 22.4218 64.7471 23.6166 64.7471 24.8625C64.7471 26.1083 64.2521 27.3032 63.3712 28.1841C62.4902 29.0651 61.2954 29.56 60.0495 29.56ZM105.028 24.5942C105.028 19.4692 100.718 15.6791 95.7983 15.6791C91.3726 15.6791 87.4328 19.4114 87.4328 24.8607V39.4244H91.5719V31.5612C92.9517 32.9138 94.3832 33.5105 96.4281 33.5105C101.051 33.5105 105.028 29.6473 105.028 24.5942ZM101.108 24.5423C101.108 25.7882 100.614 26.983 99.7326 27.864C98.8517 28.7449 97.6568 29.2398 96.411 29.2398C95.1651 29.2398 93.9703 28.7449 93.0893 27.864C92.2084 26.983 91.7134 25.7882 91.7134 24.5423C91.7134 23.2965 92.2084 22.1016 93.0893 21.2207C93.9703 20.3397 95.1651 19.8448 96.411 19.8448C97.6568 19.8448 98.8517 20.3397 99.7326 21.2207C100.614 22.1016 101.108 23.2965 101.108 24.5423Z"></path>
<path fill="#ABABAB" d="M118.403 15.4786V11.3194C118.953 11.0626 119.418 10.6549 119.745 10.1438C120.072 9.63274 120.247 9.03933 120.25 8.43265V8.33713C120.25 6.56826 118.816 5.1343 117.047 5.1343H116.952C116.102 5.1343 115.288 5.47174 114.687 6.07238C114.086 6.67303 113.749 7.48768 113.749 8.33713V8.43265C113.752 9.03933 113.927 9.63274 114.254 10.1438C114.581 10.6549 115.046 11.0626 115.596 11.3194V15.4786C114.016 15.7205 112.528 16.3755 111.283 17.3772L99.8763 8.49279C99.9577 8.19915 100 7.89727 100.005 7.5942C100.006 6.88041 99.7959 6.18224 99.4004 5.588C99.005 4.99376 98.4422 4.53015 97.7832 4.25581C97.1243 3.98147 96.3987 3.90872 95.6984 4.04677C94.9981 4.18483 94.3545 4.52747 93.8489 5.03137C93.3434 5.53528 92.9986 6.17779 92.8583 6.87765C92.7179 7.57751 92.7883 8.30327 93.0605 8.96313C93.3327 9.62299 93.7944 10.1873 94.3874 10.5847C94.9803 10.9821 95.6778 11.1947 96.3916 11.1956C97.0161 11.1927 97.6289 11.026 98.1687 10.7121L109.401 19.4527C108.392 20.9771 107.866 22.7701 107.89 24.598C107.915 26.4259 108.49 28.2039 109.54 29.7003L106.124 33.1178C105.848 33.0295 105.56 32.9826 105.27 32.9786C104.684 32.9791 104.112 33.1532 103.625 33.479C103.138 33.8049 102.758 34.2677 102.534 34.8091C102.31 35.3505 102.252 35.9462 102.366 36.5208C102.481 37.0954 102.763 37.6232 103.177 38.0375C103.591 38.4519 104.119 38.734 104.694 38.8485C105.268 38.9629 105.864 38.9044 106.405 38.6804C106.947 38.4564 107.41 38.0769 107.736 37.59C108.061 37.103 108.235 36.5303 108.236 35.9444C108.232 35.6545 108.185 35.3668 108.097 35.0907L111.477 31.7098C112.579 32.5582 113.86 33.1432 115.223 33.4198C116.586 33.6964 117.995 33.6574 119.34 33.3056C120.686 32.9539 121.933 32.2988 122.987 31.3905C124.04 30.4823 124.872 29.345 125.418 28.0657C125.964 26.7865 126.209 25.3992 126.136 24.0103C126.063 22.6213 125.673 21.2675 124.996 20.0525C124.319 18.8376 123.373 17.7937 122.23 17.0009C121.088 16.2081 119.779 15.6874 118.403 15.4786ZM117.002 29.1579C116.378 29.1751 115.756 29.0669 115.174 28.8397C114.592 28.6126 114.061 28.271 113.613 27.8353C113.166 27.3996 112.81 26.8785 112.566 26.3029C112.323 25.7273 112.198 25.1088 112.198 24.4839C112.198 23.8591 112.323 23.2406 112.566 22.665C112.81 22.0893 113.166 21.5683 113.613 21.1326C114.061 20.6968 114.592 20.3553 115.174 20.1282C115.756 19.901 116.378 19.7928 117.002 19.81C118.213 19.8524 119.36 20.363 120.202 21.2341C121.043 22.1053 121.514 23.2692 121.515 24.4805C121.515 25.6918 121.046 26.8561 120.205 27.7282C119.364 28.6002 118.218 29.1119 117.007 29.1555"></path>
</g>
<defs>
<clipPath id="clip0_991_3034">
<rect transform="translate(0 0.43689)" fill="white" height="43.8679" width="150"></rect>
</clipPath>
</defs>
</svg>
