<svg xmlns="http://www.w3.org/2000/svg" fill="none" viewBox="0 0 150 53" height="53" width="150">
<g clip-path="url(#clip0_991_3039)">
<g clip-path="url(#clip1_991_3039)">
<path fill="#ABABAB" d="M31.929 0.806154L3.15965 2.9659C0.831486 3.13203 0 4.71031 0 6.53778V38.1033C0 39.5154 0.498891 40.7614 1.74612 42.3397L8.48115 51.1448C9.56208 52.5569 10.643 52.8892 12.7217 52.7231L46.1474 50.7295C48.9745 50.5633 49.806 49.2343 49.806 46.9915V11.4387C49.806 10.2758 49.3902 9.94353 47.9767 8.94673C47.8936 8.86366 47.8104 8.86366 47.7273 8.78059L38.5809 2.38443C36.4191 0.723087 35.5044 0.556953 31.929 0.806154ZM13.4701 10.8573C10.7262 11.0234 10.1441 11.1065 8.5643 9.7774L4.65632 6.70392C4.24058 6.28858 4.40687 5.79018 5.4878 5.70711L33.1763 3.7135C35.5044 3.54737 36.6685 4.29497 37.5831 5.04258L42.3226 8.44833C42.5721 8.53139 43.071 9.11286 42.4058 9.11286L13.8027 10.8573H13.4701ZM10.3104 46.6592V16.5058C10.3104 15.1768 10.7262 14.5953 11.8902 14.5122L44.7339 12.6017C45.8149 12.5186 46.3137 13.1832 46.3137 14.5122V44.4164C46.3137 45.7454 46.0643 46.8253 44.3182 46.9084L12.888 48.7359C11.1419 48.902 10.3104 48.2375 10.3104 46.6592ZM41.3248 18.1672C41.4911 19.0809 41.3248 19.9947 40.4102 20.0777L38.9135 20.41V42.672C37.5831 43.4196 36.4191 43.7518 35.4213 43.7518C33.8415 43.7518 33.4257 43.2534 32.1785 41.7582L22.2007 26.1416V41.1768L25.3603 41.9244C25.3603 41.9244 25.3603 43.7518 22.8659 43.7518L15.8814 44.1672C15.7151 43.7518 15.8814 42.755 16.5466 42.5889L18.3758 42.0905V22.1544L15.8814 21.9052C15.7151 20.9915 16.214 19.6624 17.6275 19.5793L25.1109 19.0809L35.4213 34.8637V20.9084L32.7605 20.5761C32.5942 19.4963 33.3426 18.6656 34.3404 18.5825L41.3248 18.1672Z" clip-rule="evenodd" fill-rule="evenodd"></path>
<path fill="#ABABAB" d="M71.9235 37.6048V23.8988H72.173L82.0676 37.6048H85.2273V17.4195H81.735V31.1256H81.4856L71.5909 17.4195H68.4313V37.6048H71.9235ZM94.9557 37.854C99.5288 37.854 102.273 34.8636 102.273 29.8796C102.273 24.9786 99.4457 21.9051 94.9557 21.9051C90.3825 21.9051 87.6386 24.8956 87.6386 29.8796C87.5554 34.8636 90.3825 37.854 94.9557 37.854ZM94.9557 34.9467C92.5444 34.9467 91.1308 33.1192 91.1308 29.8796C91.1308 26.723 92.5444 24.8125 94.9557 24.8125C97.367 24.8125 98.7805 26.64 98.7805 29.8796C98.6974 33.1192 97.367 34.9467 94.9557 34.9467ZM105.432 18.5825V22.4035H103.021V25.1448H105.432V33.4515C105.432 36.4419 106.846 37.6048 110.338 37.6048C111.003 37.6048 111.669 37.5218 112.167 37.4387V34.7805C111.752 34.8636 111.502 34.8636 111.003 34.8636C109.59 34.8636 108.925 34.1991 108.925 32.7039V25.2278H112.167V22.4866H108.925V18.6655H105.432V18.5825ZM114.246 37.6048H117.738V22.3205H114.246V37.6048ZM115.992 19.7454C117.156 19.7454 118.071 18.8317 118.071 17.6687C118.071 16.5058 117.156 15.592 115.992 15.592C114.828 15.592 113.914 16.5058 113.914 17.6687C113.914 18.8317 114.828 19.7454 115.992 19.7454ZM127.217 37.854C131.79 37.854 134.534 34.8636 134.534 29.8796C134.534 24.9786 131.707 21.9051 127.217 21.9051C122.644 21.9051 119.9 24.8956 119.9 29.8796C119.817 34.8636 122.644 37.854 127.217 37.854ZM127.217 34.9467C124.806 34.9467 123.392 33.1192 123.392 29.8796C123.392 26.723 124.806 24.8125 127.217 24.8125C129.629 24.8125 131.042 26.64 131.042 29.8796C130.959 33.1192 129.629 34.9467 127.217 34.9467ZM136.613 37.6048H140.105V28.6336C140.105 26.3908 141.436 24.9786 143.431 24.9786C145.51 24.9786 146.508 26.1416 146.508 28.4674V37.5218H150V27.6368C150 23.9818 148.171 21.9051 144.762 21.9051C142.517 21.9051 140.937 22.985 140.188 24.6464H139.939V22.3205H136.613V37.6048Z"></path>
</g>
</g>
<defs>
<clipPath id="clip0_991_3039">
<rect transform="translate(0 0.723145)" fill="white" height="52" width="150"></rect>
</clipPath>
<clipPath id="clip1_991_3039">
<rect transform="translate(0 0.723145)" fill="white" height="52" width="150"></rect>
</clipPath>
</defs>
</svg>
