<svg xmlns="http://www.w3.org/2000/svg" fill="none" viewBox="0 0 85 40" height="40" width="85">
<g id="Group 28">
<g id="Group 14">
<g id="Group">
<path fill="#ABABAB" d="M15.6448 25.8741C14.9172 24.4422 14.0638 22.9958 12.399 22.9958C12.0807 22.9958 11.7629 23.0486 11.4712 23.1817L10.9056 22.0498C11.5948 21.4585 12.7085 20.9896 14.14 20.9896C16.367 20.9896 17.5099 22.0623 18.4172 23.4317C18.9558 22.2626 19.2118 20.6839 19.2118 18.727C19.2118 13.8403 17.6836 11.3311 14.1138 11.3311C10.5961 11.3311 9.07616 13.8403 9.07616 18.727C9.07616 23.5879 10.5961 26.0713 14.1138 26.0713C14.673 26.0713 15.1793 26.0099 15.6448 25.8741ZM16.5168 27.5795C15.7457 27.7862 14.9263 27.9004 14.1138 27.9004C9.42968 27.9004 4.84338 24.1626 4.84338 18.727C4.84338 13.2398 9.42968 9.50131 14.1138 9.50131C18.8765 9.50131 23.4188 13.2129 23.4188 18.727C23.4188 21.7942 21.9877 24.2866 19.9075 25.8976C20.5797 26.9047 21.2715 27.5734 22.235 27.5734C23.2864 27.5734 23.7105 26.7609 23.7815 26.1237H25.1508C25.2308 26.9722 24.8064 30.4987 20.9795 30.4987C18.6615 30.4987 17.4359 29.1551 16.5168 27.5795ZM26.4302 22.9166V16.6328C26.4302 15.917 26.1658 15.5992 25.3439 15.5992H24.4688V13.9294H30.1862V22.8373C30.1862 24.339 30.9991 25.0013 32.2368 25.0013C33.2526 25.0013 34.2688 24.5518 34.8169 23.5257V16.6328C34.8169 15.917 34.5517 15.5992 33.7301 15.5992H32.8023V13.9294H38.5732V23.2602C38.5732 24.1895 38.9176 24.6132 39.9778 24.6132H40.1637V26.3365L35.0027 27.1581V25.3821H34.8965C33.8982 26.6008 32.4932 27.4232 30.487 27.4232C28.2335 27.4232 26.4302 26.2837 26.4302 22.9166ZM47.67 25.7535C49.7027 25.7535 50.475 23.9851 50.5156 20.4245C50.555 16.9416 49.7027 15.2555 47.67 15.2555C45.894 15.2555 44.7803 16.9423 44.7803 20.4245C44.7803 23.9858 45.8758 25.7535 47.67 25.7535ZM47.67 27.4232C43.994 27.4232 40.6792 24.6125 40.6792 20.4245C40.6792 16.315 43.914 13.5843 47.67 13.5843C51.5849 13.5843 54.7222 16.3673 54.7222 20.4245C54.7222 24.6125 51.5849 27.4232 47.67 27.4232ZM54.8405 27.1581V25.4879H55.3974C56.7762 25.4879 56.9086 25.0904 56.9086 23.8975V16.6328C56.9086 15.917 56.5376 15.5992 55.6894 15.5992H54.9471V13.9294H60.187L60.4521 16.6601H60.5587C61.1421 14.6976 62.706 13.6635 64.1725 13.6635C65.3832 13.6635 66.3285 14.3531 66.3285 15.7498C66.3285 16.7216 65.8612 17.756 64.5529 17.756C63.377 17.756 63.1479 16.9602 62.1754 16.9602C61.3098 16.9602 60.6376 17.7825 60.6376 18.9925V23.8975C60.6376 25.0904 60.9297 25.4879 62.2819 25.4879H63.0504V27.1581H54.8405ZM72.2845 25.2141C73.955 25.2141 74.6438 23.6323 74.6438 22.0426V19.9207C73.4247 21.1838 70.5874 21.2282 70.5874 23.4817C70.5874 24.5863 71.2421 25.2141 72.2845 25.2141ZM74.7239 25.205C74.0343 26.5303 72.6198 27.4232 70.6409 27.4232C68.3434 27.4232 66.8588 26.2029 66.8588 24.056C66.8588 19.7356 72.8766 20.8838 74.6438 18.0211V17.7112C74.6438 15.5112 73.7778 15.1668 72.8235 15.1668C70.1459 15.1668 71.365 18.0461 68.8995 18.0461C67.7156 18.0461 67.2559 17.3315 67.2559 16.5274C67.2559 14.9012 69.2003 13.5843 72.8504 13.5843C76.3048 13.5843 78.4264 14.539 78.4264 17.9767V23.4643C78.4264 24.3124 78.7359 24.7725 79.4782 24.7725C79.7961 24.7725 80.0612 24.6842 80.2641 24.5427L80.7064 25.6199C80.3438 26.1771 79.3803 27.1581 77.5509 27.1581C75.9608 27.1581 74.9621 26.4157 74.8293 25.205H74.7239Z" id="Vector"></path>
</g>
</g>
</g>
</svg>
