<svg xmlns="http://www.w3.org/2000/svg" fill="none" viewBox="0 0 150 59" height="59" width="150">
<g clip-path="url(#clip0_991_3024)">
<g clip-path="url(#clip1_991_3024)">
<path fill="#ABABAB" d="M33.1177 26.0983L33.0723 25.9773L28.4885 14.0363C28.3957 13.8018 28.2306 13.6029 28.0171 13.4684C27.8579 13.3665 27.6769 13.3034 27.4887 13.284C27.3006 13.2646 27.1105 13.2895 26.9338 13.3566C26.757 13.4238 26.5984 13.5314 26.4708 13.6708C26.3431 13.8102 26.25 13.9775 26.1988 14.1594L23.1047 23.6194H10.575L7.4809 14.1594C7.42929 13.9778 7.33592 13.8108 7.20822 13.6717C7.08052 13.5325 6.92203 13.4251 6.7454 13.358C6.56877 13.2909 6.37888 13.2659 6.19087 13.2851C6.00286 13.3042 5.82194 13.367 5.66252 13.4684C5.44903 13.6029 5.28395 13.8018 5.19117 14.0363L0.609542 25.9795L0.561974 26.0983C-0.0976459 27.8199 -0.178909 29.709 0.330436 31.4808C0.839781 33.2526 1.91212 34.811 3.38576 35.921L3.40306 35.934L3.44198 35.9642L10.415 41.1833L13.8744 43.7939L15.9761 45.381C16.2226 45.567 16.5232 45.6676 16.8323 45.6676C17.1413 45.6676 17.4419 45.567 17.6885 45.381L19.7901 43.7939L23.2496 41.1833L30.2723 35.934L30.2917 35.9188C31.7653 34.8093 32.8378 33.2514 33.3475 31.48C33.8572 29.7087 33.7766 27.8198 33.1177 26.0983Z"></path>
<path fill="#ABABAB" d="M60.5599 25.4807H65.4853C64.6637 20.2508 60.1297 16.608 54.2291 16.608C47.2475 16.608 42.0085 21.7343 42.0085 30.3197C42.0085 38.7519 47.0118 43.9817 54.3718 43.9817C60.9772 43.9817 65.7059 39.7387 65.7059 32.8699V29.6698H54.8799V33.4421H61.0291C60.9513 37.2425 58.4107 39.648 54.3978 39.648C49.9307 39.648 46.8691 36.3053 46.8691 30.2679C46.8691 24.2693 49.9826 20.9396 54.294 20.9396C57.5113 20.9396 59.7124 22.6563 60.5599 25.4807Z"></path>
<path fill="#ABABAB" d="M68.9621 43.6168H73.6778V23.6431H68.9621V43.6168ZM71.3405 20.4689C72.8389 20.4689 74.0626 19.3223 74.0626 17.9187C74.0626 16.5151 72.8389 15.3556 71.3405 15.3556C69.8421 15.3556 68.6053 16.5 68.6053 17.9187C68.6053 19.3374 69.8205 20.4689 71.3318 20.4689H71.3405Z"></path>
<path fill="#ABABAB" d="M87.7989 23.6431H83.8507V18.8451H79.1351V23.6431H76.2961V27.2859H79.1351V38.3977C79.1091 42.1571 81.8464 44.012 85.388 43.9018C86.3315 43.8831 87.267 43.7252 88.1643 43.4333L87.3686 39.7495C86.9179 39.8663 86.4547 39.9279 85.9891 39.933C84.8021 39.933 83.8507 39.5163 83.8507 37.6161V27.2751H87.7989V23.6431Z"></path>
<path fill="#ABABAB" d="M91.4487 43.6168H108.033V39.5703H96.2833V16.9708H91.4487V43.6168Z"></path>
<path fill="#ABABAB" d="M117.066 44.0206C120.205 44.0206 122.08 42.5501 122.94 40.8723H123.096V43.6168H127.637V30.242C127.637 24.9603 123.325 23.3732 119.507 23.3732C115.299 23.3732 112.069 25.2453 111.027 28.8881L115.431 29.5143C115.898 28.1474 117.228 26.9771 119.539 26.9771C121.73 26.9771 122.927 28.0956 122.927 30.0606V30.1383C122.927 31.4901 121.507 31.557 117.976 31.9327C114.095 32.3495 110.383 33.5069 110.383 38.009C110.37 41.939 113.247 44.0206 117.066 44.0206ZM118.616 40.5657C116.649 40.5657 115.241 39.6674 115.241 37.9378C115.241 36.1283 116.817 35.3747 118.917 35.0745C120.156 34.9061 122.631 34.593 123.241 34.1007V36.4543C123.254 38.672 121.455 40.5592 118.616 40.5592V40.5657Z"></path>
<path fill="#ABABAB" d="M131.109 43.6168H135.747V40.4685H136.019C136.763 41.9261 138.313 43.9688 141.753 43.9688C146.469 43.9688 150 40.2332 150 33.6516C150 26.9901 146.365 23.3732 141.74 23.3732C138.21 23.3732 136.737 25.4937 136.019 26.9382H135.82V16.9708H131.109V43.6168ZM135.734 33.6257C135.734 29.7389 137.401 27.2362 140.437 27.2362C143.576 27.2362 145.193 29.903 145.193 33.6257C145.193 37.3483 143.552 40.1036 140.437 40.1036C137.427 40.1036 135.734 37.5016 135.734 33.6257Z"></path>
</g>
</g>
<defs>
<clipPath id="clip0_991_3024">
<rect transform="translate(0 0.723145)" fill="white" height="57.5" width="150"></rect>
</clipPath>
<clipPath id="clip1_991_3024">
<rect transform="translate(0 0.723145)" fill="white" height="57.5" width="150"></rect>
</clipPath>
</defs>
</svg>
